<svg width="1920" height="912" xmlns="http://www.w3.org/2000/svg"><g><path d="M-24,-75L-70,30L27,104Z" fill="#fefeff" stroke="#fefeff" fill-opacity="1" stroke-opacity="1"/><path d="M-24,-75L27,104L104,-108Z" fill="#fdfcfe" stroke="#fdfcfe" fill-opacity="1" stroke-opacity="1"/><path d="M104,-108L27,104L222,96Z" fill="#faf9fc" stroke="#faf9fc" fill-opacity="1" stroke-opacity="1"/><path d="M104,-108L222,96L179,-120Z" fill="#f9f8fb" stroke="#f9f8fb" fill-opacity="1" stroke-opacity="1"/><path d="M179,-120L222,96L413,-80Z" fill="#f4f4f9" stroke="#f4f4f9" fill-opacity="1" stroke-opacity="1"/><path d="M179,-120L413,-80L576,-109Z" fill="#efeef6" stroke="#efeef6" fill-opacity="1" stroke-opacity="1"/><path d="M179,-120L576,-109L1453,-127Z" fill="#d7d6e9" stroke="#d7d6e9" fill-opacity="1" stroke-opacity="1"/><path d="M413,-80L222,96L390,90Z" fill="#f1f1f7" stroke="#f1f1f7" fill-opacity="1" stroke-opacity="1"/><path d="M413,-80L390,90L577,47Z" fill="#eaeaf4" stroke="#eaeaf4" fill-opacity="1" stroke-opacity="1"/><path d="M413,-80L577,47L576,-109Z" fill="#e6e6f2" stroke="#e6e6f2" fill-opacity="1" stroke-opacity="1"/><path d="M576,-109L577,47L654,-49Z" fill="#e0e1ef" stroke="#e0e1ef" fill-opacity="1" stroke-opacity="1"/><path d="M576,-109L654,-49L796,-94Z" fill="#dbdbec" stroke="#dbdbec" fill-opacity="1" stroke-opacity="1"/><path d="M576,-109L796,-94L1453,-127Z" fill="#c9c7e1" stroke="#c9c7e1" fill-opacity="1" stroke-opacity="1"/><path d="M654,-49L577,47L693,55Z" fill="#dedeee" stroke="#dedeee" fill-opacity="1" stroke-opacity="1"/><path d="M654,-49L693,55L796,-94Z" fill="#d9d8ea" stroke="#d9d8ea" fill-opacity="1" stroke-opacity="1"/><path d="M796,-94L693,55L853,104Z" fill="#d4d3e7" stroke="#d4d3e7" fill-opacity="1" stroke-opacity="1"/><path d="M796,-94L853,104L986,53Z" fill="#cdcbe3" stroke="#cdcbe3" fill-opacity="1" stroke-opacity="1"/><path d="M796,-94L986,53L1017,-25Z" fill="#c9c7e1" stroke="#c9c7e1" fill-opacity="1" stroke-opacity="1"/><path d="M796,-94L1017,-25L1138,-27Z" fill="#c6c4df" stroke="#c6c4df" fill-opacity="1" stroke-opacity="1"/><path d="M796,-94L1138,-27L1274,-55Z" fill="#c0bedd" stroke="#c0bedd" fill-opacity="1" stroke-opacity="1"/><path d="M796,-94L1274,-55L1453,-127Z" fill="#bab3d7" stroke="#bab3d7" fill-opacity="1" stroke-opacity="1"/><path d="M1017,-25L986,53L1154,59Z" fill="#c1bfdd" stroke="#c1bfdd" fill-opacity="1" stroke-opacity="1"/><path d="M1017,-25L1154,59L1138,-27Z" fill="#bebbdb" stroke="#bebbdb" fill-opacity="1" stroke-opacity="1"/><path d="M1138,-27L1154,59L1274,-55Z" fill="#b9b2d6" stroke="#b9b2d6" fill-opacity="1" stroke-opacity="1"/><path d="M1274,-55L1154,59L1306,98Z" fill="#b7acd3" stroke="#b7acd3" fill-opacity="1" stroke-opacity="1"/><path d="M1274,-55L1306,98L1475,52Z" fill="#b1a1ce" stroke="#b1a1ce" fill-opacity="1" stroke-opacity="1"/><path d="M1274,-55L1475,52L1453,-127Z" fill="#af9ccc" stroke="#af9ccc" fill-opacity="1" stroke-opacity="1"/><path d="M1453,-127L1475,52L1589,-74Z" fill="#a992c7" stroke="#a992c7" fill-opacity="1" stroke-opacity="1"/><path d="M1453,-127L1589,-74L1832,-98Z" fill="#a387c2" stroke="#a387c2" fill-opacity="1" stroke-opacity="1"/><path d="M1453,-127L1832,-98L1969,-93Z" fill="#9d80bc" stroke="#9d80bc" fill-opacity="1" stroke-opacity="1"/><path d="M1589,-74L1475,52L1522,57Z" fill="#a890c6" stroke="#a890c6" fill-opacity="1" stroke-opacity="1"/><path d="M1589,-74L1522,57L1763,119Z" fill="#a387c2" stroke="#a387c2" fill-opacity="1" stroke-opacity="1"/><path d="M1589,-74L1763,119L1760,-59Z" fill="#9f80be" stroke="#9f80be" fill-opacity="1" stroke-opacity="1"/><path d="M1589,-74L1760,-59L1832,-98Z" fill="#9e80bd" stroke="#9e80bd" fill-opacity="1" stroke-opacity="1"/><path d="M1760,-59L1763,119L1856,19Z" fill="#9b80bb" stroke="#9b80bb" fill-opacity="1" stroke-opacity="1"/><path d="M1760,-59L1856,19L1832,-98Z" fill="#9a80ba" stroke="#9a80ba" fill-opacity="1" stroke-opacity="1"/><path d="M1832,-98L1856,19L1969,-93Z" fill="#9680b7" stroke="#9680b7" fill-opacity="1" stroke-opacity="1"/><path d="M1969,-93L1856,19L1977,44Z" fill="#9480b5" stroke="#9480b5" fill-opacity="1" stroke-opacity="1"/><path d="M1969,-93L1977,44L2067,274Z" fill="#9180b2" stroke="#9180b2" fill-opacity="1" stroke-opacity="1"/><path d="M-70,30L-119,243L27,104Z" fill="#ffffff" stroke="#ffffff" fill-opacity="1" stroke-opacity="1"/><path d="M27,104L-119,243L134,243Z" fill="#fdfdfe" stroke="#fdfdfe" fill-opacity="1" stroke-opacity="1"/><path d="M27,104L134,243L222,96Z" fill="#faf9fc" stroke="#faf9fc" fill-opacity="1" stroke-opacity="1"/><path d="M222,96L134,243L188,264Z" fill="#f8f7fb" stroke="#f8f7fb" fill-opacity="1" stroke-opacity="1"/><path d="M222,96L188,264L379,274Z" fill="#f3f3f9" stroke="#f3f3f9" fill-opacity="1" stroke-opacity="1"/><path d="M222,96L379,274L390,90Z" fill="#f1f1f8" stroke="#f1f1f8" fill-opacity="1" stroke-opacity="1"/><path d="M390,90L379,274L520,228Z" fill="#ededf5" stroke="#ededf5" fill-opacity="1" stroke-opacity="1"/><path d="M390,90L520,228L577,47Z" fill="#e8e8f3" stroke="#e8e8f3" fill-opacity="1" stroke-opacity="1"/><path d="M577,47L520,228L644,194Z" fill="#e2e2f0" stroke="#e2e2f0" fill-opacity="1" stroke-opacity="1"/><path d="M577,47L644,194L693,55Z" fill="#dedeee" stroke="#dedeee" fill-opacity="1" stroke-opacity="1"/><path d="M693,55L644,194L843,182Z" fill="#d8d7ea" stroke="#d8d7ea" fill-opacity="1" stroke-opacity="1"/><path d="M693,55L843,182L853,104Z" fill="#d3d1e6" stroke="#d3d1e6" fill-opacity="1" stroke-opacity="1"/><path d="M853,104L843,182L986,53Z" fill="#cccae2" stroke="#cccae2" fill-opacity="1" stroke-opacity="1"/><path d="M986,53L843,182L982,284Z" fill="#c9c7e1" stroke="#c9c7e1" fill-opacity="1" stroke-opacity="1"/><path d="M986,53L982,284L1158,168Z" fill="#c1c0de" stroke="#c1c0de" fill-opacity="1" stroke-opacity="1"/><path d="M986,53L1158,168L1154,59Z" fill="#bebbdb" stroke="#bebbdb" fill-opacity="1" stroke-opacity="1"/><path d="M1154,59L1158,168L1306,98Z" fill="#b9b0d5" stroke="#b9b0d5" fill-opacity="1" stroke-opacity="1"/><path d="M1306,98L1158,168L1321,279Z" fill="#b6aad2" stroke="#b6aad2" fill-opacity="1" stroke-opacity="1"/><path d="M1306,98L1321,279L1415,268Z" fill="#afa0ce" stroke="#afa0ce" fill-opacity="1" stroke-opacity="1"/><path d="M1306,98L1415,268L1475,52Z" fill="#af9dcc" stroke="#af9dcc" fill-opacity="1" stroke-opacity="1"/><path d="M1475,52L1415,268L1522,57Z" fill="#ab95c8" stroke="#ab95c8" fill-opacity="1" stroke-opacity="1"/><path d="M1522,57L1415,268L1606,176Z" fill="#a991c6" stroke="#a991c6" fill-opacity="1" stroke-opacity="1"/><path d="M1522,57L1606,176L1763,119Z" fill="#a387c1" stroke="#a387c1" fill-opacity="1" stroke-opacity="1"/><path d="M1763,119L1606,176L1670,256Z" fill="#a182bf" stroke="#a182bf" fill-opacity="1" stroke-opacity="1"/><path d="M1763,119L1670,256L1833,270Z" fill="#9b7ebc" stroke="#9b7ebc" fill-opacity="1" stroke-opacity="1"/><path d="M1763,119L1833,270L1977,44Z" fill="#9880b8" stroke="#9880b8" fill-opacity="1" stroke-opacity="1"/><path d="M1763,119L1977,44L1856,19Z" fill="#9780b8" stroke="#9780b8" fill-opacity="1" stroke-opacity="1"/><path d="M1977,44L1833,270L2067,274Z" fill="#9380b4" stroke="#9380b4" fill-opacity="1" stroke-opacity="1"/><path d="M-119,243L-132,318L134,243Z" fill="#f5f5ff" stroke="#f5f5ff" fill-opacity="1" stroke-opacity="1"/><path d="M134,243L-132,318L67,432Z" fill="#e9e8fc" stroke="#e9e8fc" fill-opacity="1" stroke-opacity="1"/><path d="M134,243L67,432L188,264Z" fill="#e9e8fb" stroke="#e9e8fb" fill-opacity="1" stroke-opacity="1"/><path d="M188,264L67,432L268,406Z" fill="#dedcf6" stroke="#dedcf6" fill-opacity="1" stroke-opacity="1"/><path d="M188,264L268,406L327,360Z" fill="#deddf6" stroke="#deddf6" fill-opacity="1" stroke-opacity="1"/><path d="M188,264L327,360L379,274Z" fill="#e4e4f8" stroke="#e4e4f8" fill-opacity="1" stroke-opacity="1"/><path d="M379,274L327,360L582,367Z" fill="#d8d8f3" stroke="#d8d8f3" fill-opacity="1" stroke-opacity="1"/><path d="M379,274L582,367L520,228Z" fill="#dbdbf3" stroke="#dbdbf3" fill-opacity="1" stroke-opacity="1"/><path d="M520,228L582,367L644,194Z" fill="#d9d9f0" stroke="#d9d9f0" fill-opacity="1" stroke-opacity="1"/><path d="M644,194L582,367L688,376Z" fill="#cdceed" stroke="#cdceed" fill-opacity="1" stroke-opacity="1"/><path d="M644,194L688,376L803,322Z" fill="#cacaea" stroke="#cacaea" fill-opacity="1" stroke-opacity="1"/><path d="M644,194L803,322L843,182Z" fill="#d1d0e8" stroke="#d1d0e8" fill-opacity="1" stroke-opacity="1"/><path d="M843,182L803,322L982,284Z" fill="#c4c2e3" stroke="#c4c2e3" fill-opacity="1" stroke-opacity="1"/><path d="M982,284L803,322L1003,380Z" fill="#b5b4df" stroke="#b5b4df" fill-opacity="1" stroke-opacity="1"/><path d="M982,284L1003,380L1070,385Z" fill="#acaadb" stroke="#acaadb" fill-opacity="1" stroke-opacity="1"/><path d="M982,284L1070,385L1158,168Z" fill="#b4b2dd" stroke="#b4b2dd" fill-opacity="1" stroke-opacity="1"/><path d="M1158,168L1070,385L1242,399Z" fill="#a9a3d7" stroke="#a9a3d7" fill-opacity="1" stroke-opacity="1"/><path d="M1158,168L1242,399L1321,279Z" fill="#aba1d3" stroke="#aba1d3" fill-opacity="1" stroke-opacity="1"/><path d="M1321,279L1242,399L1375,405Z" fill="#9a8bcb" stroke="#9a8bcb" fill-opacity="1" stroke-opacity="1"/><path d="M1321,279L1375,405L1415,268Z" fill="#9e8ecc" stroke="#9e8ecc" fill-opacity="1" stroke-opacity="1"/><path d="M1415,268L1375,405L1527,362Z" fill="#9681c7" stroke="#9681c7" fill-opacity="1" stroke-opacity="1"/><path d="M1415,268L1527,362L1606,176Z" fill="#9f87c6" stroke="#9f87c6" fill-opacity="1" stroke-opacity="1"/><path d="M1606,176L1527,362L1670,256Z" fill="#9b80c3" stroke="#9b80c3" fill-opacity="1" stroke-opacity="1"/><path d="M1670,256L1527,362L1716,384Z" fill="#8e71bf" stroke="#8e71bf" fill-opacity="1" stroke-opacity="1"/><path d="M1670,256L1716,384L1833,270Z" fill="#8e71bd" stroke="#8e71bd" fill-opacity="1" stroke-opacity="1"/><path d="M1833,270L1716,384L1866,323Z" fill="#876cb9" stroke="#876cb9" fill-opacity="1" stroke-opacity="1"/><path d="M1833,270L1866,323L2067,274Z" fill="#8873b5" stroke="#8873b5" fill-opacity="1" stroke-opacity="1"/><path d="M2067,274L1866,323L1982,389Z" fill="#7e6cb1" stroke="#7e6cb1" fill-opacity="1" stroke-opacity="1"/><path d="M2067,274L1982,389L2062,569Z" fill="#6c5ba8" stroke="#6c5ba8" fill-opacity="1" stroke-opacity="1"/><path d="M2067,274L2062,569L2068,1003Z" fill="#4c2e90" stroke="#4c2e90" fill-opacity="1" stroke-opacity="1"/><path d="M-132,318L-112,983L-90,573Z" fill="#bdacdf" stroke="#bdacdf" fill-opacity="1" stroke-opacity="1"/><path d="M-132,318L-90,573L31,486Z" fill="#d4d2f3" stroke="#d4d2f3" fill-opacity="1" stroke-opacity="1"/><path d="M-132,318L31,486L67,432Z" fill="#dcd9f6" stroke="#dcd9f6" fill-opacity="1" stroke-opacity="1"/><path d="M67,432L31,486L183,563Z" fill="#cac7ed" stroke="#cac7ed" fill-opacity="1" stroke-opacity="1"/><path d="M67,432L183,563L268,406Z" fill="#cccaee" stroke="#cccaee" fill-opacity="1" stroke-opacity="1"/><path d="M268,406L183,563L328,465Z" fill="#c6c4eb" stroke="#c6c4eb" fill-opacity="1" stroke-opacity="1"/><path d="M268,406L328,465L327,360Z" fill="#d0cef0" stroke="#d0cef0" fill-opacity="1" stroke-opacity="1"/><path d="M327,360L328,465L582,367Z" fill="#cdcbee" stroke="#cdcbee" fill-opacity="1" stroke-opacity="1"/><path d="M582,367L328,465L493,556Z" fill="#bebce7" stroke="#bebce7" fill-opacity="1" stroke-opacity="1"/><path d="M582,367L493,556L635,497Z" fill="#b5b4e3" stroke="#b5b4e3" fill-opacity="1" stroke-opacity="1"/><path d="M582,367L635,497L688,376Z" fill="#bbbae5" stroke="#bbbae5" fill-opacity="1" stroke-opacity="1"/><path d="M688,376L635,497L772,514Z" fill="#aeacde" stroke="#aeacde" fill-opacity="1" stroke-opacity="1"/><path d="M688,376L772,514L803,322Z" fill="#b4b2e0" stroke="#b4b2e0" fill-opacity="1" stroke-opacity="1"/><path d="M803,322L772,514L1003,380Z" fill="#ada9dc" stroke="#ada9dc" fill-opacity="1" stroke-opacity="1"/><path d="M1003,380L772,514L981,565Z" fill="#9a97d3" stroke="#9a97d3" fill-opacity="1" stroke-opacity="1"/><path d="M1003,380L981,565L1070,385Z" fill="#9b98d3" stroke="#9b98d3" fill-opacity="1" stroke-opacity="1"/><path d="M1070,385L981,565L1079,570Z" fill="#8e8bcd" stroke="#8e8bcd" fill-opacity="1" stroke-opacity="1"/><path d="M1070,385L1079,570L1242,399Z" fill="#938ccd" stroke="#938ccd" fill-opacity="1" stroke-opacity="1"/><path d="M1242,399L1079,570L1278,543Z" fill="#867cc5" stroke="#867cc5" fill-opacity="1" stroke-opacity="1"/><path d="M1242,399L1278,543L1375,405Z" fill="#8a7bc5" stroke="#8a7bc5" fill-opacity="1" stroke-opacity="1"/><path d="M1375,405L1278,543L1449,469Z" fill="#8371c0" stroke="#8371c0" fill-opacity="1" stroke-opacity="1"/><path d="M1375,405L1449,469L1527,362Z" fill="#8973c1" stroke="#8973c1" fill-opacity="1" stroke-opacity="1"/><path d="M1527,362L1449,469L1546,521Z" fill="#8066bb" stroke="#8066bb" fill-opacity="1" stroke-opacity="1"/><path d="M1527,362L1546,521L1716,384Z" fill="#8063b9" stroke="#8063b9" fill-opacity="1" stroke-opacity="1"/><path d="M1716,384L1546,521L1779,579Z" fill="#6f4fb0" stroke="#6f4fb0" fill-opacity="1" stroke-opacity="1"/><path d="M1716,384L1779,579L1928,524Z" fill="#694daa" stroke="#694daa" fill-opacity="1" stroke-opacity="1"/><path d="M1716,384L1928,524L1866,323Z" fill="#765bb0" stroke="#765bb0" fill-opacity="1" stroke-opacity="1"/><path d="M1866,323L1928,524L1982,389Z" fill="#725bad" stroke="#725bad" fill-opacity="1" stroke-opacity="1"/><path d="M1982,389L1928,524L2062,569Z" fill="#604da3" stroke="#604da3" fill-opacity="1" stroke-opacity="1"/><path d="M-90,573L-112,983L-79,711Z" fill="#ac8cd0" stroke="#ac8cd0" fill-opacity="1" stroke-opacity="1"/><path d="M-90,573L-79,711L104,716Z" fill="#b6a0d9" stroke="#b6a0d9" fill-opacity="1" stroke-opacity="1"/><path d="M-90,573L104,716L31,486Z" fill="#bfb2e2" stroke="#bfb2e2" fill-opacity="1" stroke-opacity="1"/><path d="M31,486L104,716L183,563Z" fill="#bdafe0" stroke="#bdafe0" fill-opacity="1" stroke-opacity="1"/><path d="M183,563L104,716L273,716Z" fill="#b09ad5" stroke="#b09ad5" fill-opacity="1" stroke-opacity="1"/><path d="M183,563L273,716L315,644Z" fill="#b19dd7" stroke="#b19dd7" fill-opacity="1" stroke-opacity="1"/><path d="M183,563L315,644L328,465Z" fill="#bab1e1" stroke="#bab1e1" fill-opacity="1" stroke-opacity="1"/><path d="M328,465L315,644L493,556Z" fill="#b6addf" stroke="#b6addf" fill-opacity="1" stroke-opacity="1"/><path d="M493,556L315,644L567,644Z" fill="#a99ad5" stroke="#a99ad5" fill-opacity="1" stroke-opacity="1"/><path d="M493,556L567,644L635,497Z" fill="#a89fd8" stroke="#a89fd8" fill-opacity="1" stroke-opacity="1"/><path d="M635,497L567,644L642,650Z" fill="#a193d2" stroke="#a193d2" fill-opacity="1" stroke-opacity="1"/><path d="M635,497L642,650L772,514Z" fill="#a199d5" stroke="#a199d5" fill-opacity="1" stroke-opacity="1"/><path d="M772,514L642,650L816,653Z" fill="#9687cb" stroke="#9687cb" fill-opacity="1" stroke-opacity="1"/><path d="M772,514L816,653L981,565Z" fill="#9285c9" stroke="#9285c9" fill-opacity="1" stroke-opacity="1"/><path d="M981,565L816,653L924,658Z" fill="#8875c1" stroke="#8875c1" fill-opacity="1" stroke-opacity="1"/><path d="M981,565L924,658L1079,570Z" fill="#8676c2" stroke="#8676c2" fill-opacity="1" stroke-opacity="1"/><path d="M1079,570L924,658L965,778Z" fill="#7d65ba" stroke="#7d65ba" fill-opacity="1" stroke-opacity="1"/><path d="M1079,570L965,778L1165,653Z" fill="#7860b7" stroke="#7860b7" fill-opacity="1" stroke-opacity="1"/><path d="M1079,570L1165,653L1278,543Z" fill="#7c69bb" stroke="#7c69bb" fill-opacity="1" stroke-opacity="1"/><path d="M1278,543L1165,653L1239,678Z" fill="#755ab4" stroke="#755ab4" fill-opacity="1" stroke-opacity="1"/><path d="M1278,543L1239,678L1385,670Z" fill="#7051af" stroke="#7051af" fill-opacity="1" stroke-opacity="1"/><path d="M1278,543L1385,670L1449,469Z" fill="#765cb5" stroke="#765cb5" fill-opacity="1" stroke-opacity="1"/><path d="M1449,469L1385,670L1546,521Z" fill="#7256b2" stroke="#7256b2" fill-opacity="1" stroke-opacity="1"/><path d="M1546,521L1385,670L1574,643Z" fill="#6842a8" stroke="#6842a8" fill-opacity="1" stroke-opacity="1"/><path d="M1546,521L1574,643L1779,579Z" fill="#663ea6" stroke="#663ea6" fill-opacity="1" stroke-opacity="1"/><path d="M1779,579L1574,643L1777,654Z" fill="#5d2c9e" stroke="#5d2c9e" fill-opacity="1" stroke-opacity="1"/><path d="M1779,579L1777,654L1928,524Z" fill="#5c369e" stroke="#5c369e" fill-opacity="1" stroke-opacity="1"/><path d="M1928,524L1777,654L1858,731Z" fill="#542996" stroke="#542996" fill-opacity="1" stroke-opacity="1"/><path d="M1928,524L1858,731L1983,677Z" fill="#502792" stroke="#502792" fill-opacity="1" stroke-opacity="1"/><path d="M1928,524L1983,677L2062,569Z" fill="#533596" stroke="#533596" fill-opacity="1" stroke-opacity="1"/><path d="M2062,569L1983,677L2033,850Z" fill="#441a88" stroke="#441a88" fill-opacity="1" stroke-opacity="1"/><path d="M2062,569L2033,850L2068,1003Z" fill="#35017b" stroke="#35017b" fill-opacity="1" stroke-opacity="1"/><path d="M-79,711L-112,983L-72,859Z" fill="#a080c6" stroke="#a080c6" fill-opacity="1" stroke-opacity="1"/><path d="M-79,711L-72,859L55,835Z" fill="#a681cb" stroke="#a681cb" fill-opacity="1" stroke-opacity="1"/><path d="M-79,711L55,835L104,716Z" fill="#aa8acf" stroke="#aa8acf" fill-opacity="1" stroke-opacity="1"/><path d="M104,716L55,835L210,841Z" fill="#a27dc8" stroke="#a27dc8" fill-opacity="1" stroke-opacity="1"/><path d="M104,716L210,841L273,716Z" fill="#a483cb" stroke="#a483cb" fill-opacity="1" stroke-opacity="1"/><path d="M273,716L210,841L329,869Z" fill="#9a75c4" stroke="#9a75c4" fill-opacity="1" stroke-opacity="1"/><path d="M273,716L329,869L476,882Z" fill="#9570c1" stroke="#9570c1" fill-opacity="1" stroke-opacity="1"/><path d="M273,716L476,882L315,644Z" fill="#9e7fc8" stroke="#9e7fc8" fill-opacity="1" stroke-opacity="1"/><path d="M315,644L476,882L567,644Z" fill="#9c7fc8" stroke="#9c7fc8" fill-opacity="1" stroke-opacity="1"/><path d="M567,644L476,882L684,866Z" fill="#8a66bd" stroke="#8a66bd" fill-opacity="1" stroke-opacity="1"/><path d="M567,644L684,866L642,650Z" fill="#8f74c3" stroke="#8f74c3" fill-opacity="1" stroke-opacity="1"/><path d="M642,650L684,866L816,653Z" fill="#8a6dbe" stroke="#8a6dbe" fill-opacity="1" stroke-opacity="1"/><path d="M816,653L684,866L841,883Z" fill="#7b56b3" stroke="#7b56b3" fill-opacity="1" stroke-opacity="1"/><path d="M816,653L841,883L965,778Z" fill="#7855b2" stroke="#7855b2" fill-opacity="1" stroke-opacity="1"/><path d="M816,653L965,778L924,658Z" fill="#7f64b9" stroke="#7f64b9" fill-opacity="1" stroke-opacity="1"/><path d="M1165,653L965,778L1179,880Z" fill="#6944aa" stroke="#6944aa" fill-opacity="1" stroke-opacity="1"/><path d="M1165,653L1179,880L1257,784Z" fill="#6339a5" stroke="#6339a5" fill-opacity="1" stroke-opacity="1"/><path d="M1165,653L1257,784L1239,678Z" fill="#6b47aa" stroke="#6b47aa" fill-opacity="1" stroke-opacity="1"/><path d="M1239,678L1257,784L1385,670Z" fill="#673ea6" stroke="#673ea6" fill-opacity="1" stroke-opacity="1"/><path d="M1385,670L1257,784L1399,824Z" fill="#5e2e9f" stroke="#5e2e9f" fill-opacity="1" stroke-opacity="1"/><path d="M1385,670L1399,824L1574,643Z" fill="#5e2e9e" stroke="#5e2e9e" fill-opacity="1" stroke-opacity="1"/><path d="M1574,643L1399,824L1523,864Z" fill="#531b96" stroke="#531b96" fill-opacity="1" stroke-opacity="1"/><path d="M1574,643L1523,864L1772,827Z" fill="#4d0f90" stroke="#4d0f90" fill-opacity="1" stroke-opacity="1"/><path d="M1574,643L1772,827L1777,654Z" fill="#521894" stroke="#521894" fill-opacity="1" stroke-opacity="1"/><path d="M1777,654L1772,827L1858,731Z" fill="#4a118d" stroke="#4a118d" fill-opacity="1" stroke-opacity="1"/><path d="M1858,731L1772,827L1891,818Z" fill="#410486" stroke="#410486" fill-opacity="1" stroke-opacity="1"/><path d="M1858,731L1891,818L1983,677Z" fill="#441088" stroke="#441088" fill-opacity="1" stroke-opacity="1"/><path d="M1983,677L1891,818L2033,850Z" fill="#3c0781" stroke="#3c0781" fill-opacity="1" stroke-opacity="1"/><path d="M-72,859L-112,983L128,1001Z" fill="#937ebc" stroke="#937ebc" fill-opacity="1" stroke-opacity="1"/><path d="M-72,859L128,1001L55,835Z" fill="#987dc0" stroke="#987dc0" fill-opacity="1" stroke-opacity="1"/><path d="M55,835L128,1001L210,841Z" fill="#9679be" stroke="#9679be" fill-opacity="1" stroke-opacity="1"/><path d="M210,841L128,1001L244,960Z" fill="#8f77b9" stroke="#8f77b9" fill-opacity="1" stroke-opacity="1"/><path d="M210,841L244,960L329,869Z" fill="#9175bc" stroke="#9175bc" fill-opacity="1" stroke-opacity="1"/><path d="M329,869L244,960L362,1012Z" fill="#8772b5" stroke="#8772b5" fill-opacity="1" stroke-opacity="1"/><path d="M329,869L362,1012L476,882Z" fill="#876fb6" stroke="#876fb6" fill-opacity="1" stroke-opacity="1"/><path d="M476,882L362,1012L511,933Z" fill="#816cb2" stroke="#816cb2" fill-opacity="1" stroke-opacity="1"/><path d="M476,882L511,933L684,866Z" fill="#8064b3" stroke="#8064b3" fill-opacity="1" stroke-opacity="1"/><path d="M684,866L511,933L631,977Z" fill="#7861ae" stroke="#7861ae" fill-opacity="1" stroke-opacity="1"/><path d="M684,866L631,977L817,960Z" fill="#6f59a8" stroke="#6f59a8" fill-opacity="1" stroke-opacity="1"/><path d="M684,866L817,960L841,883Z" fill="#6e53a9" stroke="#6e53a9" fill-opacity="1" stroke-opacity="1"/><path d="M841,883L817,960L986,1009Z" fill="#614b9f" stroke="#614b9f" fill-opacity="1" stroke-opacity="1"/><path d="M841,883L986,1009L965,778Z" fill="#6548a4" stroke="#6548a4" fill-opacity="1" stroke-opacity="1"/><path d="M965,778L986,1009L1068,970Z" fill="#5c439f" stroke="#5c439f" fill-opacity="1" stroke-opacity="1"/><path d="M965,778L1068,970L1179,880Z" fill="#5e3ea1" stroke="#5e3ea1" fill-opacity="1" stroke-opacity="1"/><path d="M1179,880L1068,970L1174,1082Z" fill="#4d3792" stroke="#4d3792" fill-opacity="1" stroke-opacity="1"/><path d="M1179,880L1174,1082L1315,946Z" fill="#4a2f8f" stroke="#4a2f8f" fill-opacity="1" stroke-opacity="1"/><path d="M1179,880L1315,946L1257,784Z" fill="#552c98" stroke="#552c98" fill-opacity="1" stroke-opacity="1"/><path d="M1257,784L1315,946L1365,921Z" fill="#502693" stroke="#502693" fill-opacity="1" stroke-opacity="1"/><path d="M1257,784L1365,921L1399,824Z" fill="#542396" stroke="#542396" fill-opacity="1" stroke-opacity="1"/><path d="M1399,824L1365,921L1523,864Z" fill="#4c1a8f" stroke="#4c1a8f" fill-opacity="1" stroke-opacity="1"/><path d="M1523,864L1365,921L1610,992Z" fill="#411386" stroke="#411386" fill-opacity="1" stroke-opacity="1"/><path d="M1523,864L1610,992L1697,953Z" fill="#3b0980" stroke="#3b0980" fill-opacity="1" stroke-opacity="1"/><path d="M1523,864L1697,953L1772,827Z" fill="#3f0484" stroke="#3f0484" fill-opacity="1" stroke-opacity="1"/><path d="M1772,827L1697,953L1838,994Z" fill="#34007b" stroke="#34007b" fill-opacity="1" stroke-opacity="1"/><path d="M1772,827L1838,994L1891,818Z" fill="#36007d" stroke="#36007d" fill-opacity="1" stroke-opacity="1"/><path d="M1891,818L1838,994L2033,850Z" fill="#310078" stroke="#310078" fill-opacity="1" stroke-opacity="1"/><path d="M2033,850L1838,994L2068,1003Z" fill="#27006f" stroke="#27006f" fill-opacity="1" stroke-opacity="1"/><path d="M-112,983L-107,1108L95,1134Z" fill="#857faf" stroke="#857faf" fill-opacity="1" stroke-opacity="1"/><path d="M-112,983L95,1134L128,1001Z" fill="#877db1" stroke="#877db1" fill-opacity="1" stroke-opacity="1"/><path d="M128,1001L95,1134L221,1089Z" fill="#7f79ab" stroke="#7f79ab" fill-opacity="1" stroke-opacity="1"/><path d="M128,1001L221,1089L244,960Z" fill="#8477b0" stroke="#8477b0" fill-opacity="1" stroke-opacity="1"/><path d="M244,960L221,1089L362,1012Z" fill="#8074ae" stroke="#8074ae" fill-opacity="1" stroke-opacity="1"/><path d="M362,1012L221,1089L373,1157Z" fill="#7672a6" stroke="#7672a6" fill-opacity="1" stroke-opacity="1"/><path d="M362,1012L373,1157L467,1079Z" fill="#736ea5" stroke="#736ea5" fill-opacity="1" stroke-opacity="1"/><path d="M362,1012L467,1079L511,933Z" fill="#796cab" stroke="#796cab" fill-opacity="1" stroke-opacity="1"/><path d="M511,933L467,1079L631,977Z" fill="#7466a9" stroke="#7466a9" fill-opacity="1" stroke-opacity="1"/><path d="M631,977L467,1079L686,1090Z" fill="#6962a2" stroke="#6962a2" fill-opacity="1" stroke-opacity="1"/><path d="M631,977L686,1090L817,960Z" fill="#6659a1" stroke="#6659a1" fill-opacity="1" stroke-opacity="1"/><path d="M817,960L686,1090L807,1070Z" fill="#5e549b" stroke="#5e549b" fill-opacity="1" stroke-opacity="1"/><path d="M817,960L807,1070L986,1009Z" fill="#5b4c99" stroke="#5b4c99" fill-opacity="1" stroke-opacity="1"/><path d="M986,1009L807,1070L984,1071Z" fill="#524893" stroke="#524893" fill-opacity="1" stroke-opacity="1"/><path d="M986,1009L984,1071L1068,970Z" fill="#504294" stroke="#504294" fill-opacity="1" stroke-opacity="1"/><path d="M1068,970L984,1071L1174,1082Z" fill="#493e8f" stroke="#493e8f" fill-opacity="1" stroke-opacity="1"/><path d="M1315,946L1174,1082L1299,1078Z" fill="#402b86" stroke="#402b86" fill-opacity="1" stroke-opacity="1"/><path d="M1315,946L1299,1078L1365,921Z" fill="#432489" stroke="#432489" fill-opacity="1" stroke-opacity="1"/><path d="M1365,921L1299,1078L1369,1157Z" fill="#392280" stroke="#392280" fill-opacity="1" stroke-opacity="1"/><path d="M1365,921L1369,1157L1610,992Z" fill="#38187e" stroke="#38187e" fill-opacity="1" stroke-opacity="1"/><path d="M1610,992L1369,1157L1583,1147Z" fill="#2b1173" stroke="#2b1173" fill-opacity="1" stroke-opacity="1"/><path d="M1610,992L1583,1147L1768,1086Z" fill="#270570" stroke="#270570" fill-opacity="1" stroke-opacity="1"/><path d="M1610,992L1768,1086L1697,953Z" fill="#2d0275" stroke="#2d0275" fill-opacity="1" stroke-opacity="1"/><path d="M1697,953L1768,1086L1838,994Z" fill="#2a0072" stroke="#2a0072" fill-opacity="1" stroke-opacity="1"/><path d="M1838,994L1768,1086L1930,1147Z" fill="#1e0068" stroke="#1e0068" fill-opacity="1" stroke-opacity="1"/><path d="M1838,994L1930,1147L2050,1087Z" fill="#190064" stroke="#190064" fill-opacity="1" stroke-opacity="1"/><path d="M1838,994L2050,1087L2068,1003Z" fill="#1d0067" stroke="#1d0067" fill-opacity="1" stroke-opacity="1"/><path d="M95,1134L373,1157L221,1089Z" fill="#7776a4" stroke="#7776a4" fill-opacity="1" stroke-opacity="1"/><path d="M373,1157L1369,1157L686,1090Z" fill="#52518f" stroke="#52518f" fill-opacity="1" stroke-opacity="1"/><path d="M373,1157L686,1090L467,1079Z" fill="#68689e" stroke="#68689e" fill-opacity="1" stroke-opacity="1"/><path d="M686,1090L1369,1157L984,1071Z" fill="#45428b" stroke="#45428b" fill-opacity="1" stroke-opacity="1"/><path d="M686,1090L984,1071L807,1070Z" fill="#565095" stroke="#565095" fill-opacity="1" stroke-opacity="1"/><path d="M984,1071L1369,1157L1174,1082Z" fill="#3c3483" stroke="#3c3483" fill-opacity="1" stroke-opacity="1"/><path d="M1174,1082L1369,1157L1299,1078Z" fill="#36297e" stroke="#36297e" fill-opacity="1" stroke-opacity="1"/><path d="M1369,1157L1930,1147L1583,1147Z" fill="#24086a" stroke="#24086a" fill-opacity="1" stroke-opacity="1"/><path d="M1583,1147L1930,1147L1768,1086Z" fill="#1d0066" stroke="#1d0066" fill-opacity="1" stroke-opacity="1"/></g></svg>